<?xml version="1.0" encoding="utf-8" standalone="no"?>
<!DOCTYPE svg PUBLIC "-//W3C//DTD SVG 1.1//EN"
  "http://www.w3.org/Graphics/SVG/1.1/DTD/svg11.dtd">
<svg xmlns:xlink="http://www.w3.org/1999/xlink" width="460.8pt" height="345.6pt" viewBox="0 0 460.8 345.6" xmlns="http://www.w3.org/2000/svg" version="1.1">
 <metadata>
  <rdf:RDF xmlns:dc="http://purl.org/dc/elements/1.1/" xmlns:cc="http://creativecommons.org/ns#" xmlns:rdf="http://www.w3.org/1999/02/22-rdf-syntax-ns#">
   <cc:Work>
    <dc:type rdf:resource="http://purl.org/dc/dcmitype/StillImage"/>
    <dc:date>2024-10-03T21:33:29.465308</dc:date>
    <dc:format>image/svg+xml</dc:format>
    <dc:creator>
     <cc:Agent>
      <dc:title>Matplotlib v3.8.0, https://matplotlib.org/</dc:title>
     </cc:Agent>
    </dc:creator>
   </cc:Work>
  </rdf:RDF>
 </metadata>
 <defs>
  <style type="text/css">*{stroke-linejoin: round; stroke-linecap: butt}</style>
 </defs>
 <g id="figure_1">
  <g id="patch_1">
   <path d="M 0 345.6 
L 460.8 345.6 
L 460.8 0 
L 0 0 
z
" style="fill: #ffffff"/>
  </g>
  <g id="axes_1">
   <g id="patch_2">
    <path d="M 57.6 307.584 
L 414.72 307.584 
L 414.72 41.472 
L 57.6 41.472 
z
" style="fill: #ffffff"/>
   </g>
   <g id="line2d_1">
    <path d="M 73.832727 295.488 
L 87.806847 295.26586 
L 96.581294 294.916015 
L 103.080885 294.450542 
L 108.605536 293.837184 
L 113.15525 293.120927 
L 117.379984 292.230755 
L 120.954758 291.265601 
L 124.529533 290.064299 
L 127.779328 288.729717 
L 130.704144 287.299524 
L 133.62896 285.622069 
L 136.553776 283.66634 
L 139.153612 281.668089 
L 141.753448 279.400867 
L 144.353284 276.84089 
L 146.95312 273.964438 
L 149.552957 270.748275 
L 152.152793 267.170136 
L 154.752629 263.209264 
L 157.352465 258.846987 
L 159.952301 254.067334 
L 162.552138 248.857684 
L 165.476953 242.472286 
L 168.401769 235.526708 
L 171.326585 228.024349 
L 174.57638 219.051572 
L 177.826175 209.440935 
L 181.40095 198.193278 
L 185.625684 184.112862 
L 190.500377 167.060387 
L 206.749353 109.459226 
L 210.324128 97.958761 
L 213.248943 89.217057 
L 215.84878 82.055642 
L 218.448616 75.550548 
L 220.723473 70.455392 
L 222.67335 66.567755 
L 224.623227 63.150165 
L 226.573104 60.225518 
L 228.198002 58.179231 
L 229.822899 56.498738 
L 231.122817 55.423145 
L 232.422735 54.590096 
L 233.722654 54.002145 
L 235.022572 53.661097 
L 236.32249 53.568 
L 237.622408 53.723141 
L 238.922326 54.126043 
L 240.222244 54.775467 
L 241.522162 55.66942 
L 242.82208 56.805164 
L 244.446978 58.559511 
L 246.071876 60.677847 
L 247.696773 63.150165 
L 249.64665 66.567755 
L 251.596527 70.455392 
L 253.871384 75.550548 
L 256.146241 81.205033 
L 258.746077 88.288666 
L 261.670893 96.955101 
L 264.920688 107.310571 
L 268.820442 120.515052 
L 274.345094 140.128266 
L 285.719378 180.761318 
L 290.269091 196.078725 
L 294.168845 208.446578 
L 297.74362 219.051572 
L 300.993415 228.024349 
L 304.24321 236.326076 
L 307.168026 243.209414 
L 310.092842 249.532743 
L 313.017658 255.30213 
L 315.617494 259.976113 
L 318.21733 264.236426 
L 320.817166 268.099772 
L 323.417002 271.585402 
L 326.016839 274.714504 
L 328.616675 277.509632 
L 331.216511 279.994187 
L 333.816347 282.191943 
L 336.416183 284.126638 
L 339.340999 286.017768 
L 342.265815 287.637654 
L 345.190631 289.016937 
L 348.440426 290.302233 
L 352.015201 291.457417 
L 355.589975 292.38405 
L 359.814709 293.237238 
L 364.364423 293.922427 
L 369.564095 294.479571 
L 375.738706 294.916015 
L 383.538215 295.238112 
L 394.587518 295.450498 
L 398.487273 295.488 
L 398.487273 295.488 
" clip-path="url(#pe67c30ccea)" style="fill: none; stroke: #ff0000; stroke-width: 4; stroke-linecap: square"/>
   </g>
  </g>
 </g>
 <defs>
  <clipPath id="pe67c30ccea">
   <rect x="57.6" y="41.472" width="357.12" height="266.112"/>
  </clipPath>
 </defs>
</svg>
